<svg width="289" height="39" viewBox="0 0 289 39" fill="none" xmlns="http://www.w3.org/2000/svg">
<path d="M0.536 37L15.704 0.855999H15.992L31.112 37H25.784L14.456 8.152L17.768 5.992L5.096 37H0.536ZM9.416 23.848H22.328L23.864 27.88H8.072L9.416 23.848ZM61.2613 34.408C60.6853 34.792 59.9013 35.224 58.9093 35.704C57.9173 36.184 56.7493 36.584 55.4053 36.904C54.0933 37.224 52.6533 37.384 51.0853 37.384C48.3973 37.352 45.9653 36.872 43.7893 35.944C41.6453 35.016 39.8213 33.752 38.3173 32.152C36.8133 30.552 35.6453 28.712 34.8133 26.632C34.0133 24.52 33.6133 22.28 33.6133 19.912C33.6133 17.32 34.0293 14.936 34.8613 12.76C35.7253 10.552 36.9253 8.648 38.4613 7.048C39.9973 5.416 41.8053 4.152 43.8853 3.256C45.9973 2.36 48.3013 1.912 50.7973 1.912C52.8773 1.912 54.7653 2.2 56.4613 2.776C58.1573 3.32 59.6133 3.976 60.8293 4.744L58.9573 9.064C57.9973 8.424 56.8293 7.816 55.4532 7.24C54.1093 6.664 52.6053 6.376 50.9413 6.376C49.2453 6.376 47.6453 6.712 46.1413 7.384C44.6373 8.056 43.3093 9 42.1573 10.216C41.0053 11.432 40.0933 12.856 39.4213 14.488C38.7813 16.088 38.4613 17.816 38.4613 19.672C38.4613 21.56 38.7493 23.32 39.3253 24.952C39.9333 26.552 40.7813 27.944 41.8693 29.128C42.9893 30.312 44.3333 31.24 45.9013 31.912C47.4693 32.584 49.2293 32.92 51.1813 32.92C52.9413 32.92 54.5093 32.648 55.8853 32.104C57.2613 31.56 58.3973 30.952 59.2933 30.28L61.2613 34.408ZM66.5574 2.296H89.5974V6.76H80.2854V37H75.6294V6.76H66.5574V2.296ZM96.992 2.296H101.648V37H96.992V2.296ZM114.113 2.296L125.537 31L122.897 30.472L133.745 2.296H139.169L123.857 38.584L108.593 2.296H114.113ZM146.117 2.296H168.677V6.76H150.773V17.32H166.757V21.784H150.773V32.536H169.349V37H146.117V2.296ZM190.073 2.296H213.113V6.76H203.801V37H199.145V6.76H190.073V2.296ZM229.724 2.296C231.484 2.296 233.1 2.536 234.572 3.016C236.076 3.464 237.372 4.152 238.46 5.08C239.58 5.976 240.444 7.096 241.052 8.44C241.692 9.752 242.012 11.288 242.012 13.048C242.012 14.424 241.804 15.768 241.388 17.08C241.004 18.392 240.348 19.592 239.42 20.68C238.492 21.736 237.276 22.6 235.772 23.272C234.3 23.912 232.476 24.232 230.3 24.232H225.164V37H220.508V2.296H229.724ZM230.204 19.768C231.58 19.768 232.716 19.56 233.612 19.144C234.54 18.728 235.26 18.2 235.772 17.56C236.284 16.888 236.652 16.168 236.876 15.4C237.1 14.632 237.212 13.912 237.212 13.24C237.212 12.536 237.084 11.816 236.828 11.08C236.604 10.312 236.22 9.608 235.676 8.968C235.164 8.328 234.476 7.8 233.612 7.384C232.78 6.968 231.756 6.76 230.54 6.76H225.164V19.768H230.204ZM235.916 22.408L244.988 37H239.612L230.396 22.552L235.916 22.408ZM252.148 2.296H256.804V37H252.148V2.296ZM276.037 2.296C278.565 2.296 280.725 2.728 282.517 3.592C284.309 4.424 285.685 5.64 286.645 7.24C287.637 8.84 288.133 10.776 288.133 13.048C288.133 14.424 287.925 15.784 287.509 17.128C287.093 18.44 286.421 19.64 285.493 20.728C284.597 21.784 283.413 22.632 281.941 23.272C280.469 23.912 278.677 24.232 276.565 24.232H271.429V37H266.773V2.296H276.037ZM276.517 19.768C277.893 19.768 279.029 19.544 279.925 19.096C280.821 18.648 281.525 18.088 282.037 17.416C282.549 16.712 282.917 15.976 283.141 15.208C283.365 14.44 283.477 13.752 283.477 13.144C283.477 12.44 283.365 11.72 283.141 10.984C282.917 10.216 282.533 9.528 281.989 8.92C281.477 8.28 280.789 7.768 279.925 7.384C279.093 6.968 278.053 6.76 276.805 6.76H271.429V19.768H276.517Z" fill="white"/>
</svg>
